<svg xmlns="http://www.w3.org/2000/svg" viewBox="0 0 32 28" fill="none">
  <!-- Pink C: open on the right and passing under the blue link. -->
  <path d="M15.8 6.1C12.5 3.9 8 4.5 5.5 7.7c-2.8 3.5-2.25 8.5 1.2 11.3 3.3 2.65 8.05 2.25 10.85-.9"
    stroke="#B95A78" stroke-width="3.35" stroke-linecap="round" stroke-linejoin="round"/>
  <!-- Blue C: open on the left and passing over the pink link. -->
  <path d="M12.2 9.9c2.75-3.2 7.5-3.6 10.8-.95 3.5 2.8 4.05 7.8 1.25 11.3-2.55 3.2-7.05 3.8-10.35 1.6"
    stroke="#8399B2" stroke-width="3.35" stroke-linecap="round" stroke-linejoin="round"/>
  <!-- Small padlock badge. -->
  <path d="M24.1 20.1v-1.4a3 3 0 0 1 6 0v1.4"
    stroke="#FFF" stroke-width="1.8" stroke-linecap="round"/>
  <rect x="23" y="19.6" width="8.1" height="7" rx="1.35" fill="#FFF"/>
  <circle cx="27.05" cy="22.4" r=".75" fill="#252527"/>
  <path d="M27.05 23v1.25" stroke="#252527" stroke-width=".85" stroke-linecap="round"/>
</svg>
