<svg width="24" height="24" viewBox="0 0 24 24" fill="none" xmlns="http://www.w3.org/2000/svg">
  <!-- Solid filled gavel head + handle -->
  <path d="M10.905 2.692c.878-.878 2.303-.878 3.181 0l4.176 4.176c.878.878.878 2.303 0 3.181l-1.492 1.492 3.346 3.346a3.75 3.75 0 1 1-5.303 5.303l-3.346-3.346-1.492 1.492c-.878.878-2.303.878-3.181 0L3.388 13.55c-.878-.878-.878-2.303 0-3.181l7.517-7.517z" fill="#1C1C1C"/>
  <!-- Sounding block -->
  <path d="M2.9 20.25h4.72a.85.85 0 0 1 0 1.7H2.9a.85.85 0 0 1 0-1.7z" fill="#1C1C1C"/>
</svg>
