<svg width="24" height="24" viewBox="0 0 24 24" fill="none" xmlns="http://www.w3.org/2000/svg">
  <path fill-rule="evenodd" clip-rule="evenodd" d="M6 3C4.93913 3 3.92172 3.42149 3.17157 4.17163C2.42142 4.92178 2 5.93913 2 7V14C2 15.0609 2.42142 16.0783 3.17157 16.8285C3.92172 17.5786 4.93913 18 6 18H8L10.29 20.29C10.514 20.5156 10.7804 20.6946 11.0739 20.8168C11.3674 20.9389 11.6821 21.0018 12 21.0018C12.3179 21.0018 12.6326 20.9389 12.9261 20.8168C13.2196 20.6946 13.486 20.5156 13.71 20.29L16 18H18C19.0609 18 20.0783 17.5786 20.8284 16.8285C21.5786 16.0783 22 15.0609 22 14V7C22 5.93913 21.5786 4.92178 20.8284 4.17163C20.0783 3.42149 19.0609 3 18 3H6ZM8 11C7.44772 11 7 11.4477 7 12C7 12.5523 7.44772 13 8 13C8.55228 13 9 12.5523 9 12C9 11.4477 8.55228 11 8 11ZM11 12C11 11.4477 11.4477 11 12 11C12.5523 11 13 11.4477 13 12C13 12.5523 12.5523 13 12 13C11.4477 13 11 12.5523 11 12ZM16 11C15.4477 11 15 11.4477 15 12C15 12.5523 15.4477 13 16 13C16.5523 13 17 12.5523 17 12C17 11.4477 16.5523 11 16 11Z" fill="#000000"/>
</svg>
