<svg width="24" height="24" viewBox="0 0 24 24" fill="none" xmlns="http://www.w3.org/2000/svg">
  <path d="M12 2C9.54 2 7.56 3.99 7.56 6.44C7.56 8.84 9.45 10.79 11.83 10.87C11.94 10.86 12.06 10.86 12.16 10.87C14.54 10.79 16.44 8.84 16.44 6.44C16.44 3.99 14.45 2 12 2Z" fill="#292D32"/>
  <path d="M12.002 12.73C8.962 12.73 6.222 13.91 4.682 15.74C3.502 17.14 3.712 19.16 5.142 20.32C7.002 21.84 9.452 22.5 12.002 22.5C14.552 22.5 17.002 21.84 18.862 20.32C20.292 19.16 20.502 17.14 19.322 15.74C17.782 13.91 15.042 12.73 12.002 12.73Z" fill="#292D32"/>
</svg>
