<svg xmlns="http://www.w3.org/2000/svg" viewBox="0 0 48 48">
  <path fill="#25D366" d="M24.002 4C13.51 4 5 12.51 5 23.002c0 3.96 1.103 7.653 3.02 10.8L4 44l10.45-3.94c3.05 1.67 6.55 2.62 10.25 2.62 10.492 0 19.002-8.51 19.002-19.002C43.702 12.51 35.192 4 24.002 4zm10.88 26.88c-.45 1.27-2.18 2.35-3.6 2.66-.91.2-2.1.36-6.1-1.31-5.12-2.12-8.43-7.18-8.69-7.51-.26-.33-2.07-2.76-2.07-5.27s1.31-3.74 1.78-4.25c.47-.51 1.02-.64 1.36-.64.34 0 .68.01.98.01.31 0 .74-.12 1.16.89.42 1.01 1.43 3.49 1.56 3.74.13.25.21.54.04.87-.17.33-.26.54-.51.84-.25.3-.53.67-.76.9-.25.25-.51.52-.22 1.02.29.5 1.29 2.12 2.77 3.43 1.9 1.69 3.5 2.22 4 2.47.5.25.79.21 1.08-.13.29-.33 1.24-1.45 1.57-1.95.33-.5.66-.42 1.12-.25.46.17 2.91 1.37 3.41 1.62.5.25.83.38.95.58.12.2.12 1.16-.33 2.43z"/>
</svg>
